<?xml version="1.0" encoding="UTF-8"?><svg xmlns="http://www.w3.org/2000/svg" xmlns:xlink="http://www.w3.org/1999/xlink" height="104.6" preserveAspectRatio="xMidYMid meet" version="1.0" viewBox="63.9 97.9 141.3 104.6" width="141.3" zoomAndPan="magnify"><g id="change1_1"><path color="#000" d="m 133.27351,97.944598 a 25.311391,25.311391 0 0 0 -25.31101,25.311032 25.311391,25.311391 0 0 0 0.17254,2.80172 c -9.546047,1.71411 -16.707844,9.42416 -16.707844,18.73295 0,10.57575 9.243824,19.08982 20.726094,19.08982 h 29.37933 1.60753 42.96806 c 10.57576,0 19.08983,-7.91415 19.08983,-17.74436 0,-9.76876 -8.40908,-17.64091 -18.89277,-17.73908 a 21.919142,21.919142 0 0 0 -21.74449,-19.16329 21.919142,21.919142 0 0 0 -9.03462,1.96332 25.311391,25.311391 0 0 0 -22.25267,-13.252112 z" fill="#86a3bf" paint-order="fill markers stroke" style="-inkscape-stroke:none"/></g><g id="change2_1"><path color="#000" d="m 105.75682,107.4696 a 25.311391,25.311391 0 0 0 -25.310997,25.31103 25.311391,25.311391 0 0 0 0.17254,2.80172 c -9.54604,1.71411 -16.70784,9.42416 -16.70784,18.73295 0,10.57575 9.24383,19.08982 20.72609,19.08982 h 29.379317 1.60753 42.96806 c 10.57576,0 19.08983,-7.91415 19.08983,-17.74436 0,-9.76876 -8.40908,-17.64091 -18.89277,-17.73908 a 21.919142,21.919142 0 0 0 -21.74449,-19.16329 21.919142,21.919142 0 0 0 -9.03462,1.96332 25.311391,25.311391 0 0 0 -22.25267,-13.25211 z" fill="#c6e0f7" paint-order="fill markers stroke" style="-inkscape-stroke:none"/></g><g id="change3_1"><path color="#000" d="m 93.540219,161.39584 c -1.922662,2.16821 -7.126685,6.51344 -8.696917,12.42829 a 5.1838992,5.1838992 0 0 0 3.665573,6.34895 5.1838992,5.1838992 0 0 0 6.348952,-3.66556 5.1838992,5.1838992 0 0 0 0.03307,-0.12952 c 1.609786,-6.21239 -0.773768,-12.16269 -1.350731,-14.98217 z" fill="#3981bf" paint-order="fill markers stroke" style="-inkscape-stroke:none"/></g><g id="change3_2"><path color="#000" d="m 117.23817,161.39584 c -1.92266,2.16821 -7.12669,6.51344 -8.69692,12.42829 a 5.1838992,5.1838992 0 0 0 3.66557,6.34895 5.1838992,5.1838992 0 0 0 6.34896,-3.66556 5.1838992,5.1838992 0 0 0 0.033,-0.12952 c 1.60978,-6.21239 -0.77378,-12.16269 -1.35074,-14.98217 z" fill="#3981bf" paint-order="fill markers stroke" style="-inkscape-stroke:none"/></g><g id="change3_3"><path color="#000" d="m 140.97498,162.0288 c -1.92266,2.16821 -7.12669,6.51344 -8.69693,12.42828 a 5.1838992,5.1838992 0 0 0 3.66558,6.34896 5.1838992,5.1838992 0 0 0 6.34896,-3.66556 5.1838992,5.1838992 0 0 0 0.033,-0.12952 c 1.60977,-6.21239 -0.77378,-12.1627 -1.35074,-14.98217 z" fill="#3981bf" paint-order="fill markers stroke" style="-inkscape-stroke:none"/></g><g id="change3_4"><path color="#000" d="m 105.40862,182.97709 c -1.92265,2.16822 -7.126682,6.51345 -8.696914,12.42829 a 5.1838992,5.1838992 0 0 0 3.665574,6.34895 5.1838992,5.1838992 0 0 0 6.34895,-3.66556 5.1838992,5.1838992 0 0 0 0.033,-0.12951 c 1.60978,-6.2124 -0.77377,-12.1627 -1.35074,-14.98218 z" fill="#3981bf" paint-order="fill markers stroke" style="-inkscape-stroke:none"/></g><g id="change3_5"><path color="#000" d="m 129.10658,182.97709 c -1.92267,2.16822 -7.1267,6.51345 -8.69693,12.42829 a 5.1838992,5.1838992 0 0 0 3.66557,6.34895 5.1838992,5.1838992 0 0 0 6.34897,-3.66556 5.1838992,5.1838992 0 0 0 0.033,-0.12951 c 1.60978,-6.2124 -0.77378,-12.1627 -1.35073,-14.98218 z" fill="#3981bf" paint-order="fill markers stroke" style="-inkscape-stroke:none"/></g></svg>