<?xml version="1.0" encoding="UTF-8"?><svg xmlns="http://www.w3.org/2000/svg" xmlns:xlink="http://www.w3.org/1999/xlink" height="75.5" preserveAspectRatio="xMidYMid meet" version="1.0" viewBox="63.9 97.9 141.3 75.5" width="141.3" zoomAndPan="magnify"><g id="change1_1"><path d="m 133.27351,97.944598 a 25.311391,25.311391 0 0 0 -25.31101,25.311032 25.311391,25.311391 0 0 0 0.17254,2.80172 c -9.546047,1.71411 -16.707844,9.42416 -16.707844,18.73295 0,10.57575 9.243824,19.08982 20.726094,19.08982 h 29.37933 1.60753 42.96806 c 10.57576,0 19.08983,-7.91415 19.08983,-17.74436 0,-9.76876 -8.40908,-17.64091 -18.89277,-17.73908 a 21.919142,21.919142 0 0 0 -21.74449,-19.16329 21.919142,21.919142 0 0 0 -9.03462,1.96332 25.311391,25.311391 0 0 0 -22.25267,-13.252112 z" fill="#86a3bf" paint-order="fill markers stroke"/></g><g id="change2_1"><path d="m 105.75682,107.4696 a 25.311391,25.311391 0 0 0 -25.310997,25.31103 25.311391,25.311391 0 0 0 0.17254,2.80172 c -9.54604,1.71411 -16.70784,9.42416 -16.70784,18.73295 0,10.57575 9.24383,19.08982 20.72609,19.08982 h 29.379317 1.60753 42.96806 c 10.57576,0 19.08983,-7.91415 19.08983,-17.74436 0,-9.76876 -8.40908,-17.64091 -18.89277,-17.73908 a 21.919142,21.919142 0 0 0 -21.74449,-19.16329 21.919142,21.919142 0 0 0 -9.03462,1.96332 25.311391,25.311391 0 0 0 -22.25267,-13.25211 z" fill="#c6e0f7" paint-order="fill markers stroke"/></g></svg>