<?xml version="1.0" encoding="UTF-8"?><svg xmlns="http://www.w3.org/2000/svg" xmlns:xlink="http://www.w3.org/1999/xlink" height="84.4" preserveAspectRatio="xMidYMid meet" version="1.0" viewBox="44.4 97.9 160.7 84.4" width="160.7" zoomAndPan="magnify"><g id="change1_1"><path color="#000" d="m 133.27351,97.944598 a 25.311391,25.311391 0 0 0 -25.31101,25.311032 25.311391,25.311391 0 0 0 0.17254,2.80172 c -9.546047,1.71411 -16.707844,9.42416 -16.707844,18.73295 0,10.57575 9.243824,19.08982 20.726094,19.08982 h 29.37933 1.60753 42.96806 c 10.57576,0 19.08983,-7.91415 19.08983,-17.74436 0,-9.76876 -8.40908,-17.64091 -18.89277,-17.73908 a 21.919142,21.919142 0 0 0 -21.74449,-19.16329 21.919142,21.919142 0 0 0 -9.03462,1.96332 25.311391,25.311391 0 0 0 -22.25267,-13.252112 z" fill="#86a3bf" paint-order="fill markers stroke" style="-inkscape-stroke:none"/></g><g id="change2_1"><path color="#000" d="m 105.75682,107.4696 a 25.311391,25.311391 0 0 0 -25.310997,25.31103 25.311391,25.311391 0 0 0 0.17254,2.80172 c -9.54604,1.71411 -16.70784,9.42416 -16.70784,18.73295 0,10.57575 9.24383,19.08982 20.72609,19.08982 h 29.379317 1.60753 42.96806 c 10.57576,0 19.08983,-7.91415 19.08983,-17.74436 0,-9.76876 -8.40908,-17.64091 -18.89277,-17.73908 a 21.919142,21.919142 0 0 0 -21.74449,-19.16329 21.919142,21.919142 0 0 0 -9.03462,1.96332 25.311391,25.311391 0 0 0 -22.25267,-13.25211 z" fill="#c6e0f7" paint-order="fill markers stroke" style="-inkscape-stroke:none"/></g><g color="#000" fill="#3981bf" id="change3_1" paint-order="fill markers stroke"><path d="m 98.841797,124.75195 c -6.590345,2e-5 -11.992186,5.34485 -11.992188,11.90625 a 1.984375,1.984375 0 0 0 1.984375,1.98438 1.984375,1.984375 0 0 0 1.984375,-1.98438 c 10e-7,-4.39797 3.559548,-7.93749 8.023438,-7.9375 4.463863,0 8.023433,3.53954 8.023433,7.9375 0,4.39798 -3.55956,7.9375 -8.023433,7.9375 H 46.509766 a 1.984375,1.984375 0 0 0 -1.984375,1.98438 1.984375,1.984375 0 0 0 1.984375,1.98437 h 52.332031 c 6.590343,0 11.992183,-5.34483 11.992183,-11.90625 0,-6.5614 -5.40184,-11.90626 -11.992183,-11.90625 z" style="-inkscape-stroke:none" transform="translate(-.076 -.132)"/><path d="m 123.19727,136.39258 c -5.61723,2e-5 -10.30274,4.41431 -10.30274,9.92187 a 1.984375,1.984375 0 0 0 1.98438,1.98438 1.984375,1.984375 0 0 0 1.98437,-1.98438 c 0,-3.25991 2.76352,-5.95311 6.33399,-5.95312 3.57042,-1e-5 6.33398,2.6932 6.33398,5.95312 0,3.25993 -2.76356,5.95314 -6.33398,5.95313 H 57.09375 a 1.984375,1.984375 0 0 0 -1.984375,1.98437 1.984375,1.984375 0 0 0 1.984375,1.98438 h 66.10352 c 5.61722,1e-5 10.30273,-4.41429 10.30273,-9.92188 0,-5.50759 -4.68551,-9.92188 -10.30273,-9.92187 z" style="-inkscape-stroke:none" transform="translate(-.076 -.132)"/><path d="m 52.330078,159.94141 a 1.984375,1.984375 0 0 0 -1.984375,1.98437 1.984375,1.984375 0 0 0 1.984375,1.98438 h 55.082032 c 4.18202,-1e-5 7.49219,3.26947 7.49219,7.31054 0,4.04107 -3.31016,7.3125 -7.49219,7.3125 -4.18204,0 -7.492188,-3.27143 -7.492188,-7.3125 a 1.984375,1.984375 0 0 0 -1.984375,-1.98437 1.984375,1.984375 0 0 0 -1.984375,1.98437 c 0,6.22759 5.174888,11.28124 11.460938,11.28125 6.28604,0 11.46094,-5.05365 11.46094,-11.28125 0,-6.2276 -5.1749,-11.27931 -11.46094,-11.27929 z" style="-inkscape-stroke:none" transform="translate(-.076 -.132)"/></g></svg>